<?xml version="1.0" encoding="utf-8"?>
<svg width="700pt" height="700pt" version="1.1" viewBox="0 0 622.128 589.118" xmlns="http://www.w3.org/2000/svg">
  <defs>
    <symbol id="u" overflow="visible">
      <path d="m13.594-0.8125c-0.69922 0.36719-1.4297 0.63672-2.1875 0.8125-0.76172 0.1875-1.5547 0.28125-2.375 0.28125-2.4688 0-4.4219-0.6875-5.8594-2.0625s-2.1562-3.2422-2.1562-5.6094c0-2.3633 0.71875-4.2344 2.1562-5.6094s3.3906-2.0625 5.8594-2.0625c0.82031 0 1.6133 0.09375 2.375 0.28125 0.75781 0.17969 1.4883 0.44922 2.1875 0.8125v3.0625c-0.71094-0.47656-1.4062-0.82812-2.0938-1.0469-0.6875-0.22656-1.4141-0.34375-2.1719-0.34375-1.3555 0-2.4219 0.4375-3.2031 1.3125-0.78125 0.86719-1.1719 2.0625-1.1719 3.5938s0.39062 2.7344 1.1719 3.6094c0.78125 0.86719 1.8477 1.2969 3.2031 1.2969 0.75781 0 1.4844-0.10938 2.1719-0.32812 0.6875-0.22656 1.3828-0.58203 2.0938-1.0625z"/>
    </symbol>
    <symbol id="c" overflow="visible">
      <path d="m9.9531-8.0781c-0.3125-0.14453-0.625-0.25-0.9375-0.3125-0.30469-0.070313-0.60938-0.10938-0.92188-0.10938-0.90625 0-1.6094 0.29297-2.1094 0.875-0.49219 0.58594-0.73438 1.4219-0.73438 2.5156v5.1094h-3.5469v-11.094h3.5469v1.8125c0.45703-0.71875 0.97656-1.2422 1.5625-1.5781 0.59375-0.34375 1.3047-0.51562 2.1406-0.51562 0.11328 0 0.23828 0.007812 0.375 0.015625 0.14453 0.011719 0.34766 0.039063 0.60938 0.078125z"/>
    </symbol>
    <symbol id="a" overflow="visible">
      <path d="m12.781-5.5781v1.0156h-8.2969c0.09375 0.83594 0.39453 1.4609 0.90625 1.875 0.51953 0.40625 1.2383 0.60938 2.1562 0.60938 0.75 0 1.5156-0.10938 2.2969-0.32812s1.5859-0.55078 2.4219-1v2.7344c-0.84375 0.3125-1.6875 0.54688-2.5312 0.70312-0.83594 0.16406-1.6719 0.25-2.5156 0.25-2 0-3.5586-0.50781-4.6719-1.5312-1.1172-1.0195-1.6719-2.4531-1.6719-4.2969 0-1.8008 0.54688-3.2227 1.6406-4.2656 1.0938-1.0391 2.5977-1.5625 4.5156-1.5625 1.7383 0 3.1289 0.52734 4.1719 1.5781 1.0508 1.0547 1.5781 2.4609 1.5781 4.2188zm-3.6406-1.1875c0-0.66406-0.19922-1.207-0.59375-1.625-0.39844-0.41406-0.91406-0.625-1.5469-0.625-0.6875 0-1.2461 0.19922-1.6719 0.59375-0.42969 0.38672-0.69531 0.9375-0.79688 1.6562z"/>
    </symbol>
    <symbol id="e" overflow="visible">
      <path d="m6.6875-5c-0.75 0-1.3125 0.13281-1.6875 0.39062-0.36719 0.25-0.54688 0.61719-0.54688 1.0938 0 0.46094 0.14844 0.8125 0.45312 1.0625 0.30078 0.25 0.71875 0.375 1.25 0.375 0.66406 0 1.2227-0.23828 1.6719-0.71875 0.45703-0.47656 0.6875-1.0781 0.6875-1.7969v-0.40625zm5.4062-1.3281v6.3281h-3.5781v-1.6406c-0.46875 0.66797-1 1.1562-1.5938 1.4688-0.59375 0.30078-1.3203 0.45312-2.1719 0.45312-1.1562 0-2.0938-0.33203-2.8125-1-0.71094-0.66406-1.0625-1.5352-1.0625-2.6094 0-1.3008 0.44531-2.2539 1.3438-2.8594 0.89453-0.61328 2.3008-0.92188 4.2188-0.92188h2.0781v-0.28125c0-0.55078-0.22656-0.95703-0.67188-1.2188-0.4375-0.26953-1.125-0.40625-2.0625-0.40625-0.76172 0-1.4688 0.078125-2.125 0.23438-0.64844 0.15625-1.25 0.38672-1.8125 0.6875v-2.7031c0.75781-0.1875 1.5195-0.32812 2.2812-0.42188 0.76953-0.10156 1.5391-0.15625 2.3125-0.15625 2 0 3.4414 0.39844 4.3281 1.1875 0.88281 0.79297 1.3281 2.0781 1.3281 3.8594z"/>
    </symbol>
    <symbol id="b" overflow="visible">
      <path d="m5.5781-14.25v3.1562h3.6562v2.5312h-3.6562v4.7031c0 0.52344 0.097656 0.875 0.29688 1.0625 0.20703 0.17969 0.61719 0.26562 1.2344 0.26562h1.8125v2.5312h-3.0312c-1.4062 0-2.4023-0.28906-2.9844-0.875-0.58594-0.58203-0.875-1.5781-0.875-2.9844v-4.7031h-1.7656v-2.5312h1.7656v-3.1562z"/>
    </symbol>
    <symbol id="k" overflow="visible">
      <path d="m9.25-9.4688v-5.9531h3.5781v15.422h-3.5781v-1.6094c-0.49219 0.65625-1.0273 1.1367-1.6094 1.4375-0.58594 0.30078-1.2656 0.45312-2.0469 0.45312-1.3672 0-2.4922-0.53906-3.375-1.625-0.875-1.082-1.3125-2.4844-1.3125-4.2031 0-1.707 0.4375-3.1016 1.3125-4.1875 0.88281-1.0938 2.0078-1.6406 3.375-1.6406 0.76953 0 1.4453 0.15625 2.0312 0.46875 0.59375 0.30469 1.1328 0.78125 1.625 1.4375zm-2.3281 7.1719c0.75781 0 1.3359-0.27344 1.7344-0.82812 0.39453-0.55078 0.59375-1.3594 0.59375-2.4219 0-1.0508-0.19922-1.8516-0.59375-2.4062-0.39844-0.5625-0.97656-0.84375-1.7344-0.84375-0.76172 0-1.3398 0.28125-1.7344 0.84375-0.39844 0.55469-0.59375 1.3555-0.59375 2.4062 0 1.0625 0.19531 1.8711 0.59375 2.4219 0.39453 0.55469 0.97266 0.82812 1.7344 0.82812z"/>
    </symbol>
    <symbol id="j" overflow="visible">
      <path d="m7.6094-2.2969c0.75781 0 1.3359-0.27344 1.7344-0.82812 0.40625-0.55078 0.60938-1.3594 0.60938-2.4219 0-1.0508-0.20312-1.8516-0.60938-2.4062-0.39844-0.5625-0.97656-0.84375-1.7344-0.84375-0.76172 0-1.3438 0.28125-1.75 0.84375s-0.60938 1.3672-0.60938 2.4062c0 1.0547 0.20312 1.8594 0.60938 2.4219 0.40625 0.55469 0.98828 0.82812 1.75 0.82812zm-2.3594-7.1719c0.48828-0.65625 1.0312-1.1328 1.625-1.4375 0.59375-0.3125 1.2734-0.46875 2.0469-0.46875 1.375 0 2.5 0.54688 3.375 1.6406 0.875 1.0859 1.3125 2.4805 1.3125 4.1875 0 1.7188-0.4375 3.1211-1.3125 4.2031-0.875 1.0859-2 1.625-3.375 1.625-0.77344 0-1.4531-0.15234-2.0469-0.45312-0.59375-0.3125-1.1367-0.78906-1.625-1.4375v1.6094h-3.5469v-15.422h3.5469z"/>
    </symbol>
    <symbol id="i" overflow="visible">
      <path d="m0.25-11.094h3.5469l2.9844 7.5312 2.5312-7.5312h3.5469l-4.6562 12.141c-0.46875 1.2383-1.0156 2.1016-1.6406 2.5938-0.625 0.48828-1.4531 0.73438-2.4844 0.73438h-2.0469v-2.3281h1.1094c0.60156 0 1.0391-0.09375 1.3125-0.28125 0.26953-0.1875 0.48438-0.53125 0.64062-1.0312l0.09375-0.3125z"/>
    </symbol>
    <symbol id="h" overflow="visible">
      <path d="m1.8594-14.797h3.8125v5.6406h5.6406v-5.6406h3.8125v14.797h-3.8125v-6.2656h-5.6406v6.2656h-3.8125z"/>
    </symbol>
    <symbol id="t" overflow="visible">
      <path d="m1.0938-7.2812h6.2344v2.875h-6.2344z"/>
    </symbol>
    <symbol id="s" overflow="visible">
      <path d="m0.09375-14.797h13.641v2.8906h-4.9062v11.906h-3.8125v-11.906h-4.9219z"/>
    </symbol>
    <symbol id="g" overflow="visible">
      <path d="m10.672-10.75v2.8906c-0.48047-0.33203-0.96484-0.57812-1.4531-0.73438-0.48047-0.15625-0.98438-0.23438-1.5156-0.23438-0.99219 0-1.7617 0.29297-2.3125 0.875-0.55469 0.57422-0.82812 1.375-0.82812 2.4062 0 1.043 0.27344 1.8555 0.82812 2.4375 0.55078 0.57422 1.3203 0.85938 2.3125 0.85938 0.5625 0 1.0938-0.082031 1.5938-0.25 0.5-0.16406 0.95703-0.41016 1.375-0.73438v2.9062c-0.55469 0.21094-1.1172 0.35938-1.6875 0.45312-0.57422 0.10156-1.1484 0.15625-1.7188 0.15625-2 0-3.5703-0.50781-4.7031-1.5312-1.125-1.0312-1.6875-2.4609-1.6875-4.2969 0-1.8203 0.5625-3.25 1.6875-4.2812 1.1328-1.0312 2.7031-1.5469 4.7031-1.5469 0.58203 0 1.1562 0.054688 1.7188 0.15625 0.5625 0.10547 1.125 0.26172 1.6875 0.46875z"/>
    </symbol>
    <symbol id="f" overflow="visible">
      <path d="m12.859-6.7656v6.7656h-3.5625v-5.1562c0-0.96875-0.023437-1.6328-0.0625-2-0.042969-0.36328-0.11719-0.62891-0.21875-0.79688-0.14844-0.23828-0.33984-0.42188-0.57812-0.54688-0.23047-0.125-0.5-0.1875-0.8125-0.1875-0.74219 0-1.3242 0.28906-1.75 0.85938-0.41797 0.5625-0.625 1.3555-0.625 2.375v5.4531h-3.5469v-15.422h3.5469v5.9531c0.53906-0.65625 1.1094-1.1328 1.7031-1.4375 0.60156-0.3125 1.2695-0.46875 2-0.46875 1.2812 0 2.25 0.39844 2.9062 1.1875 0.66406 0.78125 1 1.9219 1 3.4219z"/>
    </symbol>
    <symbol id="r" overflow="visible">
      <path d="m9.0156-15.422v2.3281h-1.9688c-0.5 0-0.85156 0.09375-1.0469 0.28125-0.19922 0.17969-0.29688 0.49219-0.29688 0.9375v0.78125h3.0312v2.5312h-3.0312v8.5625h-3.5469v-8.5625h-1.7656v-2.5312h1.7656v-0.78125c0-1.207 0.33203-2.0977 1-2.6719 0.67578-0.58203 1.7227-0.875 3.1406-0.875z"/>
    </symbol>
    <symbol id="d" overflow="visible">
      <path d="m6.9844-8.8281c-0.78125 0-1.3828 0.28125-1.7969 0.84375-0.41797 0.5625-0.625 1.375-0.625 2.4375 0 1.0742 0.20703 1.8906 0.625 2.4531 0.41406 0.5625 1.0156 0.84375 1.7969 0.84375 0.76953 0 1.3594-0.28125 1.7656-0.84375 0.41406-0.5625 0.625-1.3789 0.625-2.4531 0-1.0625-0.21094-1.875-0.625-2.4375-0.40625-0.5625-0.99609-0.84375-1.7656-0.84375zm0-2.5469c1.9062 0 3.3945 0.51562 4.4688 1.5469 1.082 1.0312 1.625 2.4609 1.625 4.2812 0 1.8242-0.54297 3.25-1.625 4.2812-1.0742 1.0312-2.5625 1.5469-4.4688 1.5469-1.918 0-3.418-0.51562-4.5-1.5469-1.0742-1.0312-1.6094-2.457-1.6094-4.2812 0-1.8203 0.53516-3.25 1.6094-4.2812 1.082-1.0312 2.582-1.5469 4.5-1.5469z"/>
    </symbol>
    <symbol id="q" overflow="visible">
      <path d="m11.984-9.25c0.45703-0.6875 0.99219-1.2109 1.6094-1.5781 0.61328-0.36328 1.2891-0.54688 2.0312-0.54688 1.2812 0 2.2539 0.39844 2.9219 1.1875 0.66406 0.78125 1 1.9219 1 3.4219v6.7656h-3.5781v-5.7812c0.007812-0.09375 0.015625-0.17969 0.015625-0.26562 0.007813-0.09375 0.015625-0.22656 0.015625-0.40625 0-0.78125-0.12109-1.3477-0.35938-1.7031-0.23047-0.35156-0.60156-0.53125-1.1094-0.53125-0.67969 0-1.1992 0.27734-1.5625 0.82812-0.36719 0.55469-0.55859 1.3555-0.57812 2.4062v5.4531h-3.5625v-5.7812c0-1.2266-0.10547-2.0195-0.3125-2.375-0.21094-0.35156-0.58594-0.53125-1.125-0.53125-0.6875 0-1.2188 0.28125-1.5938 0.84375-0.36719 0.55469-0.54688 1.3516-0.54688 2.3906v5.4531h-3.5625v-11.094h3.5625v1.625c0.4375-0.63281 0.9375-1.1094 1.5-1.4219 0.5625-0.32031 1.1875-0.48438 1.875-0.48438 0.75781 0 1.4297 0.1875 2.0156 0.5625 0.59375 0.375 1.0391 0.89844 1.3438 1.5625z"/>
    </symbol>
    <symbol id="p" overflow="visible">
      <path d="m1.8594-14.797h4.2656l5.375 10.156v-10.156h3.625v14.797h-4.2656l-5.375-10.156v10.156h-3.625z"/>
    </symbol>
    <symbol id="o" overflow="visible">
      <path d="m1.5781-4.3281v-6.7656h3.5781v1.1094c0 0.59375-0.007812 1.3516-0.015625 2.2656v1.8125c0 0.89844 0.019531 1.543 0.0625 1.9375 0.039063 0.38672 0.11719 0.66797 0.23438 0.84375 0.14453 0.23047 0.33203 0.41406 0.5625 0.54688 0.23828 0.125 0.50781 0.1875 0.8125 0.1875 0.73828 0 1.3203-0.28516 1.75-0.85938 0.42578-0.57031 0.64062-1.3633 0.64062-2.375v-5.4688h3.5469v11.094h-3.5469v-1.6094c-0.54297 0.64844-1.1172 1.125-1.7188 1.4375-0.59375 0.30078-1.25 0.45312-1.9688 0.45312-1.2812 0-2.2617-0.39062-2.9375-1.1719-0.66797-0.78906-1-1.9375-1-3.4375z"/>
    </symbol>
    <symbol id="n" overflow="visible">
      <path d="m12.859-6.7656v6.7656h-3.5625v-5.1719c0-0.95703-0.023437-1.6172-0.0625-1.9844-0.042969-0.36328-0.11719-0.62891-0.21875-0.79688-0.14844-0.23828-0.33984-0.42188-0.57812-0.54688-0.23047-0.125-0.5-0.1875-0.8125-0.1875-0.74219 0-1.3242 0.28906-1.75 0.85938-0.41797 0.5625-0.625 1.3555-0.625 2.375v5.4531h-3.5469v-11.094h3.5469v1.625c0.53906-0.65625 1.1094-1.1328 1.7031-1.4375 0.60156-0.3125 1.2695-0.46875 2-0.46875 1.2812 0 2.25 0.39844 2.9062 1.1875 0.66406 0.78125 1 1.9219 1 3.4219z"/>
    </symbol>
    <symbol id="m" overflow="visible">
      <path d="m1.8594-14.797h6.3438c1.875 0 3.3164 0.41797 4.3281 1.25 1.0078 0.83594 1.5156 2.0273 1.5156 3.5781 0 1.5547-0.50781 2.7461-1.5156 3.5781-1.0117 0.83594-2.4531 1.25-4.3281 1.25h-2.5312v5.1406h-3.8125zm3.8125 2.7656v4.125h2.125c0.73828 0 1.3047-0.17578 1.7031-0.53125 0.40625-0.36328 0.60938-0.875 0.60938-1.5312 0-0.66406-0.20312-1.1758-0.60938-1.5312-0.39844-0.35156-0.96484-0.53125-1.7031-0.53125z"/>
    </symbol>
    <symbol id="l" overflow="visible">
      <path d="m1.7031-11.094h3.5469v10.891c0 1.4883-0.35938 2.625-1.0781 3.4062-0.71094 0.78125-1.7422 1.1719-3.0938 1.1719h-1.75v-2.3281h0.60938c0.67578 0 1.1406-0.15234 1.3906-0.45312 0.25-0.30469 0.375-0.90234 0.375-1.7969zm0-4.3281h3.5469v2.8906h-3.5469z"/>
    </symbol>
  </defs>
  <g transform="matrix(1, 0, 0, 1, -452.417999, -83.655006)">
    <path d="M 792.704 454.495 C 790.27 454.495 788.645 456.12 788.645 458.554 L 788.645 564.064 C 788.645 577.455 777.688 588.005 764.704 588.005 L 533.804 588.005 C 520.413 588.005 509.863 577.048 509.863 564.064 L 509.859 192.764 C 509.859 179.373 520.816 168.823 533.8 168.823 L 764.29 168.823 C 777.681 168.823 788.231 179.78 788.231 192.764 L 788.235 430.964 C 788.235 433.397 789.86 435.022 792.294 435.022 C 794.728 435.022 796.353 433.397 796.353 430.964 L 796.353 192.764 C 796.353 174.909 781.744 160.705 764.294 160.705 L 533.804 160.705 C 515.949 160.705 501.745 175.314 501.745 192.764 L 501.745 563.664 C 501.745 581.519 516.354 595.723 533.804 595.723 L 764.294 595.723 C 782.149 595.723 796.353 581.114 796.353 563.664 L 796.353 458.154 C 796.755 456.126 794.728 454.501 792.7 454.501"/>
    <path d="M 631.604 557.975 C 631.604 567.307 639.721 575.018 649.866 575.018 C 660.011 575.018 668.128 567.307 668.128 557.975 C 668.128 548.643 660.011 540.932 649.866 540.932 C 639.718 540.932 631.604 548.639 631.604 557.975 M 659.604 557.975 C 659.604 562.846 655.139 566.901 649.459 566.901 C 643.779 566.901 639.314 562.842 639.314 557.975 C 639.314 553.104 643.779 549.049 649.459 549.049 C 655.139 549.045 659.604 553.104 659.604 557.975"/>
    <path d="M 769.574 430.955 L 769.574 211.015 C 769.574 193.972 755.777 180.581 739.14 180.581 L 559.78 180.577 C 542.737 180.577 529.346 194.374 529.346 211.011 L 529.346 497.101 C 529.346 514.144 543.143 527.535 559.78 527.535 L 738.74 527.535 C 755.783 527.535 769.174 513.738 769.174 497.101 L 769.174 458.55 C 769.174 456.116 767.549 454.491 765.115 454.491 C 762.682 454.491 761.057 456.116 761.057 458.55 L 761.057 497.101 C 761.057 509.679 750.912 519.421 738.737 519.421 L 559.787 519.425 C 547.209 519.425 537.467 509.28 537.467 497.105 L 537.471 211.015 C 537.471 198.437 547.616 188.695 559.791 188.695 L 738.751 188.695 C 751.329 188.695 761.071 198.84 761.071 211.015 L 761.067 430.955 C 761.067 433.389 762.692 435.014 765.125 435.014 C 767.559 435.014 769.586 433.389 769.586 430.955"/>
    <path d="M 998.844 263.365 L 930.266 263.365 C 915.657 263.365 903.891 275.135 903.891 289.74 L 903.891 338.842 C 903.891 353.451 915.661 365.217 930.266 365.217 L 998.844 365.221 C 1013.453 365.221 1025.219 353.451 1025.219 338.846 L 1025.219 289.334 C 1025.219 274.729 1013.453 263.365 998.844 263.365 Z M 956.235 271.478 L 972.465 271.478 L 972.465 285.275 L 956.235 285.275 L 956.235 271.478 Z M 1017.106 338.435 C 1017.106 348.58 1008.989 356.697 998.844 356.697 L 930.266 356.697 C 920.121 356.697 912.004 348.58 912.004 338.435 L 912.004 289.333 C 912.004 279.188 920.121 271.071 930.266 271.071 L 947.715 271.071 L 947.715 292.985 L 980.18 292.985 L 980.18 271.071 L 998.442 271.071 C 1008.587 271.071 1016.704 279.189 1016.704 289.333 L 1016.7 338.435 L 1017.106 338.435 Z"/>
    <path d="M 955.024 319.365 L 928.649 319.365 C 926.215 319.365 924.59 320.99 924.59 323.424 C 924.59 325.857 926.215 327.482 928.649 327.482 L 955.024 327.482 C 957.458 327.482 959.083 325.857 959.083 323.424 C 959.083 321.392 957.462 319.365 955.024 319.365"/>
    <path d="M 955.024 338.435 L 928.649 338.435 C 926.215 338.435 924.59 340.06 924.59 342.494 C 924.59 344.927 926.215 346.552 928.649 346.552 L 955.024 346.552 C 957.458 346.552 959.083 344.927 959.083 342.494 C 959.083 340.06 957.462 338.435 955.024 338.435"/>
    <path d="M 649.054 427.715 C 651.488 427.715 653.113 426.09 653.113 423.656 L 653.113 415.539 C 653.113 413.106 651.488 411.481 649.054 411.481 C 646.62 411.481 644.995 413.106 644.995 415.539 L 644.995 423.656 C 644.995 425.684 647.023 427.715 649.054 427.715"/>
    <path d="M 644.994 448.405 L 657.17 448.405 C 659.604 448.405 661.229 446.78 661.229 444.346 C 661.229 441.913 659.604 440.288 657.17 440.288 L 653.111 440.288 L 653.111 436.229 C 653.111 433.796 651.486 432.171 649.053 432.171 C 646.619 432.171 644.994 433.796 644.994 436.229 L 644.994 448.405 Z"/>
    <path d="M 828.814 440.295 L 811.771 440.295 C 809.337 440.295 807.712 441.92 807.712 444.354 C 807.712 446.787 809.337 448.412 811.771 448.412 L 828.814 448.412 C 831.248 448.412 832.873 446.787 832.873 444.354 C 832.873 442.326 831.252 440.295 828.814 440.295"/>
    <path d="M 794.734 440.295 L 777.691 440.295 C 775.257 440.295 773.632 441.92 773.632 444.354 C 773.632 446.787 775.257 448.412 777.691 448.412 L 794.734 448.412 C 797.168 448.412 798.793 446.787 798.793 444.354 C 798.793 442.326 796.761 440.295 794.734 440.295"/>
    <path d="M 708.704 448.405 L 725.747 448.405 C 728.181 448.405 729.806 446.78 729.806 444.346 C 729.806 441.913 728.181 440.288 725.747 440.288 L 708.704 440.288 C 706.27 440.288 704.645 441.913 704.645 444.346 C 704.645 446.78 706.673 448.405 708.704 448.405"/>
    <path d="M 674.614 440.295 C 672.18 440.295 670.555 441.92 670.555 444.354 C 670.555 446.787 672.18 448.412 674.614 448.412 L 691.657 448.412 C 694.091 448.412 695.716 446.787 695.716 444.354 C 695.716 441.92 694.091 440.295 691.657 440.295 L 674.614 440.295 Z"/>
    <path d="M 743.194 440.295 C 740.76 440.295 739.135 441.92 739.135 444.354 C 739.135 446.787 740.76 448.412 743.194 448.412 L 760.237 448.412 C 762.671 448.412 764.296 446.787 764.296 444.354 C 764.296 441.92 762.671 440.295 760.237 440.295 L 743.194 440.295 Z"/>
    <path d="M 853.974 432.175 C 851.54 432.175 849.915 433.8 849.915 436.234 L 849.915 440.292 L 845.857 440.292 C 843.423 440.292 841.798 441.917 841.798 444.351 C 841.798 446.784 843.423 448.409 845.857 448.409 L 858.033 448.409 L 858.033 436.233 C 858.033 434.202 856.408 432.175 853.974 432.175"/>
    <path d="M 853.974 294.205 C 851.54 294.205 849.915 295.83 849.915 298.264 L 849.915 315.307 C 849.915 317.74 851.54 319.365 853.974 319.365 C 856.408 319.365 858.033 317.74 858.033 315.307 L 858.033 298.264 C 858.033 296.232 856.408 294.205 853.974 294.205"/>
    <path d="M 853.974 259.715 C 851.54 259.715 849.915 261.34 849.915 263.774 L 849.915 281.223 C 849.915 283.656 851.54 285.281 853.974 285.281 C 856.408 285.281 858.033 283.656 858.033 281.223 L 858.033 263.774 C 858.033 261.742 856.408 259.715 853.974 259.715"/>
    <path d="M 853.974 225.225 C 851.54 225.225 849.915 226.85 849.915 229.284 L 849.915 246.733 C 849.915 249.166 851.54 250.791 853.974 250.791 C 856.408 250.791 858.033 249.166 858.033 246.733 L 858.033 229.284 C 858.033 227.252 856.408 225.225 853.974 225.225"/>
    <path d="M 853.974 190.728 C 851.54 190.728 849.915 192.353 849.915 194.787 L 849.915 211.83 C 849.915 214.263 851.54 215.888 853.974 215.888 C 856.408 215.888 858.033 214.263 858.033 211.83 L 858.033 194.787 C 858.033 192.755 856.408 190.728 853.974 190.728"/>
    <path d="M 853.974 328.695 C 851.54 328.695 849.915 330.32 849.915 332.754 L 849.915 349.797 C 849.915 352.23 851.54 353.855 853.974 353.855 C 856.408 353.855 858.033 352.23 858.033 349.797 L 858.033 332.754 C 858.033 330.726 856.408 328.695 853.974 328.695"/>
    <path d="M 853.974 363.185 C 851.54 363.185 849.915 364.81 849.915 367.244 L 849.915 384.693 C 849.915 387.126 851.54 388.751 853.974 388.751 C 856.408 388.751 858.033 387.126 858.033 384.693 L 858.033 367.244 C 858.033 365.216 856.408 363.185 853.974 363.185"/>
    <path d="M 853.974 397.685 C 851.54 397.685 849.915 399.31 849.915 401.744 L 849.915 419.193 C 849.915 421.626 851.54 423.251 853.974 423.251 C 856.408 423.251 858.033 421.626 858.033 419.193 L 858.033 401.744 C 858.033 399.716 856.408 397.685 853.974 397.685"/>
    <path d="M 862.094 165.568 L 849.918 165.568 L 849.918 177.744 C 849.918 180.178 851.543 181.803 853.977 181.803 C 856.41 181.803 858.035 180.178 858.035 177.744 L 858.035 173.685 L 862.094 173.685 C 864.527 173.685 866.152 172.06 866.152 169.627 C 866.152 167.189 864.527 165.568 862.094 165.568"/>
    <path d="M 892.934 165.568 L 877.512 165.568 C 875.078 165.568 873.453 167.193 873.453 169.627 C 873.453 172.06 875.078 173.685 877.512 173.685 L 892.934 173.685 C 895.368 173.685 896.993 172.06 896.993 169.627 C 896.993 167.189 894.961 165.568 892.934 165.568"/>
    <path d="M 908.354 173.682 L 923.776 173.682 C 926.21 173.682 927.835 172.057 927.835 169.623 C 927.835 167.19 926.21 165.565 923.776 165.565 L 908.354 165.565 C 905.92 165.565 904.295 167.19 904.295 169.623 C 904.295 171.655 905.916 173.682 908.354 173.682"/>
    <path d="M 938.784 173.682 L 942.843 173.682 L 942.843 177.741 C 942.843 180.174 944.468 181.799 946.901 181.799 C 949.335 181.799 950.96 180.174 950.96 177.741 L 950.96 165.565 L 938.784 165.565 C 936.35 165.565 934.725 167.19 934.725 169.623 C 934.725 171.654 936.752 173.682 938.784 173.682"/>
    <path d="M 950.964 194.783 C 950.964 192.349 949.339 190.724 946.905 190.724 C 944.472 190.724 942.847 192.349 942.847 194.783 L 942.851 211.83 C 942.851 214.264 944.476 215.889 946.909 215.889 C 949.343 215.889 950.968 214.264 950.968 211.83 L 950.964 194.783 Z"/>
    <path d="M 946.904 224.815 C 944.47 224.815 942.845 226.44 942.845 228.874 L 942.845 236.991 C 942.845 239.424 944.47 241.049 946.904 241.049 C 949.338 241.049 950.963 239.424 950.963 236.991 L 950.963 228.874 C 950.959 226.436 949.338 224.815 946.904 224.815"/>
    <path d="M 649.454 234.555 C 615.774 234.555 588.583 261.743 588.583 295.426 C 588.583 331.543 624.7 379.426 649.454 405.806 C 674.208 379.431 710.325 331.951 710.325 295.426 C 710.321 262.149 683.134 234.555 649.454 234.555 M 649.454 394.035 C 638.091 381.051 596.7 331.949 596.7 295.832 C 596.7 266.613 620.235 243.078 649.454 243.078 C 678.673 243.078 702.208 266.613 702.208 295.832 C 702.208 331.949 660.813 381.051 649.454 394.035"/>
    <path d="M 649.454 258.905 C 629.165 258.905 612.931 275.135 612.931 295.428 C 612.931 315.717 629.161 331.951 649.454 331.951 C 669.743 331.951 685.977 315.721 685.977 295.428 C 685.973 275.135 669.743 258.905 649.454 258.905 M 649.454 324.237 C 633.63 324.237 621.048 311.659 621.048 295.831 C 621.048 280.007 633.626 267.425 649.454 267.425 C 665.278 267.425 677.86 280.003 677.86 295.831 C 677.856 311.253 664.872 324.237 649.454 324.237"/>
  </g>
</svg>